:SAMPLES-PER-SECOND 30
:FRAME-RANGE 1-2091
:FULLY-SPECIFIED
:DEGREES
262
root  -1.95011 37.9771 94.814 3.99103 -19.3344 -5.75007
RightUpLeg  -17.3957 2.35495 9.55762
RightLeg  20.9198 4.81641 1.93021
RightFoot  -4.53129 0.225261 -4.29681
RightToes  5.38607e-012 1.2921e-014 -6.02303e-014
Spine  -5.51862 -5.71364 6.31908
Spine1  12.0677 -6.88998 3.93656
HEad  37.1001 4.47536 0.180204
LeftShoulder1  0.980938 -0.342728 -20.7169
LeftArm  -2.1244 14.8753 -47.7164
LeftForeArm  39.3384 5.28453 -13.0493
LeftHand  -0.019192 5.96779 2.74024
RightShoulder  0.14505 -2.84505 23.626
RightArm  -31.2286 -19.9334 18.2242
RightForeArm  7.07007 6.32061 0.0942828
RightHand  0.00741323 -3.04972 1.23182
LeftUpLeg  -20.3488 10.7263 4.84615
LeftLeg  66.2981 -0.347155 -0.162759
LeftFoot  3.38947 1.70119 -13.273
LeftToes  -7.20997e-011 3.75522e-011 -2.80735e-011
263
root  -1.72636 38.0458 95.8116 4.17028 -23.1994 -5.57327
RightUpLeg  -16.2393 3.65867 8.77959
RightLeg  21.6076 7.4417 2.52149
RightFoot  -5.88908 0.148774 -3.95756
RightToes  5.38607e-012 1.2921e-014 -6.02303e-014
Spine  -5.09358 -5.33584 6.3647
Spine1  11.5121 -6.40111 3.50275
HEad  36.7306 5.03317 -0.249171
LeftShoulder1  0.99851 -0.401124 -20.7712
LeftArm  -1.94441 13.8609 -47.3776
LeftForeArm  38.7249 4.69269 -13.0496
LeftHand  -0.0156213 5.81459 2.74897
RightShoulder  0.232763 -2.53466 22.998
RightArm  -31.4592 -17.8664 19.1057
RightForeArm  13.3707 7.27052 0.633129
RightHand  0.0355912 -2.02155 1.63527
LeftUpLeg  -23.0182 8.95028 5.67112
LeftLeg  64.0143 0.49656 1.76081
LeftFoot  1.14534 1.37021 -12.5497
LeftToes  -7.20997e-011 3.75522e-011 -2.80735e-011
264
root  -1.48748 38.08 96.7911 4.4413 -27.2767 -5.43027
RightUpLeg  -15.3918 5.55718 7.7464
RightLeg  22.3736 9.43028 3.26907
RightFoot  -7.25772 0.0887852 -3.86376
RightToes  5.38607e-012 1.2921e-014 -6.02303e-014
Spine  -4.56524 -4.77447 6.44389
Spine1  10.5371 -5.72431 2.9788
HEad  36.3889 5.52004 -0.729105
LeftShoulder1  1.00643 -0.435481 -20.7333
LeftArm  -1.46461 12.535 -47.0511
LeftForeArm  38.3133 3.90091 -13.0984
LeftHand  -0.0213522 5.78502 2.24512
RightShoulder  0.330598 -2.18152 22.5311
RightArm  -30.6676 -15.7446 20.0036
RightForeArm  18.0911 8.2652 1.60416
RightHand  0.0220619 -1.90971 1.10162
LeftUpLeg  -25.0633 6.99966 7.07828
LeftLeg  60.3005 1.75588 3.90412
LeftFoot  -0.911401 0.977781 -10.6315
LeftToes  -7.20997e-011 3.75522e-011 -2.80735e-011
265
root  -1.24438 38.0835 97.7542 4.78246 -31.0805 -5.3963
RightUpLeg  -14.8784 8.69116 6.48706
RightLeg  23.2618 10.0745 3.86596
RightFoot  -8.75301 0.0221938 -3.59923
RightToes  5.38607e-012 1.2921e-014 -6.02303e-014
Spine  -4.04305 -4.29246 6.28803
Spine1  9.54022 -5.23295 2.83946
HEad  36.3197 6.03875 -1.10624
LeftShoulder1  0.992514 -0.385863 -20.7165
LeftArm  -1.01848 11.0673 -46.7837
LeftForeArm  38.2414 2.96051 -13.1227
LeftHand  -0.0220519 5.66607 2.52904
RightShoulder  0.441791 -1.77973 22.2625
RightArm  -30.2381 -13.0512 21.0671
RightForeArm  22.9651 8.59403 2.25859
RightHand  -0.0131054 -1.89658 -0.0933197
LeftUpLeg  -26.4507 4.15247 9.23402
LeftLeg  55.5311 3.41874 5.84204
LeftFoot  -1.79576 0.857491 -10.1228
LeftToes  -7.20997e-011 3.75522e-011 -2.80735e-011
266
root  -0.99382 38.0324 98.7159 4.78143 -34.7428 -5.12129
RightUpLeg  -14.5577 12.7272 4.72481
RightLeg  24.5409 9.79832 4.55952
RightFoot  -10.4524 -0.053626 -2.19986
RightToes  5.38607e-012 1.2921e-014 -6.02303e-014
Spine  -3.37515 -3.8716 5.86272
Spine1  8.66859 -4.73607 2.55784
HEad  36.0335 6.26943 -1.34387
LeftShoulder1  0.999219 -0.441488 -20.4813
LeftArm  -0.566607 9.65623 -46.5813
LeftForeArm  37.945 1.68941 -13.1178
LeftHand  -0.0254459 5.4419 2.75876
RightShoulder  0.551093 -1.39015 22.1976
RightArm  -29.1295 -10.6266 22.0457
RightForeArm  27.1253 9.78111 3.28365
RightHand  -0.0480292 -2.55131 -1.42845
LeftUpLeg  -26.9888 0.685509 11.7439
LeftLeg  50.2496 4.56356 6.29898
LeftFoot  -2.07382 0.833473 -10.1116
LeftToes  -7.20997e-011 3.75522e-011 -2.80735e-011
267
root  -0.744489 38.0045 99.6613 4.32644 -38.2411 -4.3645
RightUpLeg  -14.2324 16.7724 2.93534
RightLeg  25.7692 9.13623 4.54936
RightFoot  -11.8274 -0.0895837 -2.26455
RightToes  5.38607e-012 1.2921e-014 -6.02303e-014
Spine  -2.87535 -3.52393 5.00792
Spine1  8.16016 -4.23199 1.9234
HEad  35.7157 6.41801 -1.5187
LeftShoulder1  1.05453 -0.680898 -20.2533
LeftArm  0.50543 8.22797 -46.2455
LeftForeArm  36.9566 0.126094 -13.2027
LeftHand  -0.0291009 5.24933 3.08033
RightShoulder  0.678991 -0.930025 22.0962
RightArm  -27.8017 -8.56562 23.3095
RightForeArm  31.2872 11.3539 4.11892
RightHand  -0.072822 -3.11444 -2.94396
LeftUpLeg  -26.5987 -4.07054 14.2918
LeftLeg  44.3037 4.89033 5.49075
LeftFoot  -2.11533 0.818971 -9.9754
LeftToes  -7.20997e-011 3.75522e-011 -2.80735e-011
